<svg id="LOGOS" xmlns="http://www.w3.org/2000/svg" viewBox="0 0 540 132"><defs><style>.cls-1{fill:#fff;}.cls-2{fill:#e03875;}</style></defs><path class="cls-1" d="M291.92,87.55v-14h17.24V69.16H291.92V56.23h18.57V51.8H287V92h23.59V87.55Z"/><path class="cls-1" d="M332.89,62.06c-3.49,0-8.6,1.57-11.84,3.13l-.15.07-.49-2.61h-3.9l0,29.3h4.85l0-22.28.07,0c3.12-1.61,7.68-3,9.95-3,2,0,3,.91,3,2.86l0,22.44h4.85l0-22.51C339.19,64.49,337.14,62.07,332.89,62.06Z"/><path class="cls-1" d="M360.43,87.82a18.38,18.38,0,0,1-4.64.7c-2.93,0-3.15-1.35-3.15-3.41V66.66h7.95l.41-4h-8.36v-8l-4.85.7v7.29h-5.22v4h5.22V86c0,4.7,2.09,6.61,7.22,6.61a18.18,18.18,0,0,0,6-1Z"/><path class="cls-1" d="M386.29,79.16V73.1c0-7.43-3.59-11-11-11-7.61,0-11.47,3.67-11.47,10.92v8.86c0,7.32,3.68,10.73,11.59,10.73a32.47,32.47,0,0,0,10.3-1.65l-.63-3.83a37.45,37.45,0,0,1-9.25,1.36c-6.09,0-7.16-2.15-7.16-6.67V79.16ZM368.7,72.61c0-4.53,2-6.55,6.62-6.55s6.31,1.9,6.31,6.55v2.55H368.7Z"/><path class="cls-1" d="M404.27,62.11a37.62,37.62,0,0,0-8,4.65l-.18.15-.31-4.25h-4.19V92h4.85V71.64l0,0a65.81,65.81,0,0,1,8.37-5.07Z"/><path class="cls-1" d="M422.26,62.06a15.71,15.71,0,0,0-9.69,3.25l-.16.13L412,62.66h-4.08v42l4.85-.69V91.64l.15,0a46.91,46.91,0,0,0,8.4.9c6.37,0,9.47-3.11,9.47-9.52V71C430.76,65,428,62.06,422.26,62.06Zm3.65,21c0,3.7-1.47,5.28-4.92,5.28a47.39,47.39,0,0,1-8.15-.91l-.1,0V69.89l0,0a13.73,13.73,0,0,1,8.46-3.55c2.8,0,4.67.79,4.67,4.68Z"/><path class="cls-1" d="M449.34,62.11a37.62,37.62,0,0,0-8,4.65l-.18.15-.31-4.25H436.7V92h4.85V71.64l.05,0A65.81,65.81,0,0,1,450,66.53Z"/><path class="cls-1" d="M453,50.59v7.09h4.85V50.59Zm0,12.07V92h4.85V62.66Z"/><path class="cls-1" d="M481.61,78.3c-1.24-1.28-3.67-2.07-7.7-3.08-5-1.21-5.13-1.81-5.13-5.22,0-2.82.77-3.82,5.09-3.82A48.45,48.45,0,0,1,482,67l.34-3.94a33,33,0,0,0-8.24-1c-7.34,0-10.07,2.12-10.07,7.82,0,6.08.68,7.56,7.91,9.35,5.88,1.43,6.29,1.77,6.29,5.09,0,3.15-.77,4.13-5.59,4.13a33.55,33.55,0,0,1-8.33-1.18L463.64,91a30.34,30.34,0,0,0,9.27,1.53c8.51,0,10.06-2.84,10.06-8.43C483,81.07,482.78,79.49,481.61,78.3Z"/><path class="cls-1" d="M509.47,79.16V73.1c0-7.43-3.59-11-11-11C490.89,62.06,487,65.73,487,73v8.86c0,7.32,3.68,10.73,11.59,10.73a32.36,32.36,0,0,0,10.29-1.65l-.62-3.83A37.45,37.45,0,0,1,499,88.45c-6.09,0-7.16-2.15-7.16-6.67V79.16Zm-17.59-6.55c0-4.53,2-6.55,6.61-6.55s6.32,1.9,6.32,6.55v2.55H491.88Z"/><path class="cls-1" d="M117.19,62.75c0-7.38,4.3-11.68,14.34-11.68a46,46,0,0,1,11,1.33l-.85,6.6a59,59,0,0,0-9.86-1c-5.27,0-7,1.81-7,6.11V79.57c0,4.29,1.69,6.11,7,6.11a59,59,0,0,0,9.86-1l.85,6.6a46,46,0,0,1-11,1.33c-10,0-14.34-4.3-14.34-11.68Z"/><path class="cls-1" d="M158.82,92.58C148.71,92.58,146,87,146,81V73.52c0-6,2.72-11.62,12.83-11.62s12.82,5.57,12.82,11.62V81C171.64,87,168.92,92.58,158.82,92.58Zm0-24.39c-3.94,0-5.45,1.76-5.45,5.09V81.2c0,3.33,1.51,5.08,5.45,5.08s5.44-1.75,5.44-5.08V73.28C164.26,70,162.75,68.19,158.82,68.19Z"/><path class="cls-1" d="M194.09,92V71.4c0-1.57-.67-2.36-2.36-2.36s-5,1.09-7.69,2.48V92h-7.38V62.51h5.63L183,65a29.49,29.49,0,0,1,11.8-3.09c4.9,0,6.66,3.45,6.66,8.71V92Z"/><path class="cls-1" d="M216.65,92.58a34.66,34.66,0,0,1-10.16-1.7l1-5.62a33.18,33.18,0,0,0,8.77,1.27c3.27,0,3.75-.73,3.75-3,0-1.81-.36-2.72-5.14-3.87-7.2-1.75-8.05-3.57-8.05-9.26,0-5.93,2.6-8.53,11-8.53a38.51,38.51,0,0,1,8.83,1L226,68.8a52.36,52.36,0,0,0-8.11-.85c-3.21,0-3.75.73-3.75,2.54,0,2.36.18,2.54,4.18,3.57,8.22,2.18,9,3.27,9,9.32C227.3,89.07,225.55,92.58,216.65,92.58Z"/><path class="cls-1" d="M239.52,62.51V83.08c0,1.57.66,2.36,2.36,2.36s5-1.09,7.68-2.48V62.51h7.38V92h-5.62l-.73-2.48a29.44,29.44,0,0,1-11.8,3.09c-4.9,0-6.65-3.45-6.65-8.72V62.51Z"/><path class="cls-1" d="M263.29,92V50.47l7.38-1V92Z"/><path class="cls-2" d="M61.5,103.59A31.76,31.76,0,1,1,83,48.47h0l-7.51,7.88h0a20.87,20.87,0,1,0,0,31h0L83,95.2h0A31.66,31.66,0,0,1,61.5,103.59Z"/><path class="cls-2" d="M87.06,87.7a2.6,2.6,0,1,1,2.6-2.6A2.6,2.6,0,0,1,87.06,87.7Z"/><path class="cls-2" d="M61.3,78.71a6.88,6.88,0,1,1,6.88-6.88A6.88,6.88,0,0,1,61.3,78.71Z"/><path class="cls-2" d="M90.05,78.81a2.6,2.6,0,1,1,2.6-2.6A2.61,2.61,0,0,1,90.05,78.81Z"/><path class="cls-2" d="M82.31,78.51a2.6,2.6,0,1,1,2.6-2.6A2.6,2.6,0,0,1,82.31,78.51Z"/><path class="cls-2" d="M90.05,70.06a2.6,2.6,0,1,1,2.6-2.6A2.61,2.61,0,0,1,90.05,70.06Z"/><path class="cls-2" d="M82.31,70.36a2.6,2.6,0,1,1,2.6-2.6A2.6,2.6,0,0,1,82.31,70.36Z"/><path class="cls-2" d="M87.21,61.31a2.6,2.6,0,1,1,2.6-2.6A2.6,2.6,0,0,1,87.21,61.31Z"/><path class="cls-1" d="M125.44,41.74V36.09h-5.17v5.65h-2.64V28.16h2.64v5.7h5.17v-5.7h2.64V41.74Zm12.33,0h-2.1l-.19-.66a5.78,5.78,0,0,1-3,.87c-1.86,0-2.66-1.23-2.66-2.92,0-2,.9-2.76,3-2.76h2.45v-1c0-1.08-.31-1.46-2-1.46a14.94,14.94,0,0,0-2.83.3l-.31-1.87a13.46,13.46,0,0,1,3.5-.47c3.2,0,4.15,1.09,4.15,3.54ZM135.21,38h-1.89c-.83,0-1.06.22-1.06,1s.23,1,1,1a4.15,4.15,0,0,0,1.93-.5ZM143.12,42a12.59,12.59,0,0,1-3.52-.57l.36-1.87a11.94,11.94,0,0,0,3,.42c1.13,0,1.3-.24,1.3-1s-.13-.91-1.78-1.29c-2.5-.58-2.79-1.19-2.79-3.08s.9-2.84,3.81-2.84a14,14,0,0,1,3.06.34l-.25,2a18.84,18.84,0,0,0-2.81-.28c-1.11,0-1.3.24-1.3.84,0,.79.07.85,1.45,1.19,2.85.72,3.12,1.08,3.12,3.1S146.2,42,143.12,42Zm11.71-.21V34.9c0-.52-.23-.78-.82-.78a7.27,7.27,0,0,0-2.66.82v6.8h-2.56V28l2.56.38v4.34a9.36,9.36,0,0,1,3.73-.95c1.7,0,2.3,1.15,2.3,2.9v7.1Zm4.7-11.18v-2.4h2.56v2.4Zm0,11.18v-9.8h2.56v9.8Zm4.6-9.72c0-2.45,1.49-3.88,5-3.88a16.47,16.47,0,0,1,3.79.44l-.29,2.2a21.57,21.57,0,0,0-3.42-.35c-1.82,0-2.41.61-2.41,2v5.15c0,1.43.59,2,2.41,2a21.49,21.49,0,0,0,3.42-.34l.29,2.19a16.47,16.47,0,0,1-3.79.45c-3.48,0-5-1.43-5-3.89ZM178.54,42c-3.5,0-4.44-1.86-4.44-3.87V35.61c0-2,.94-3.87,4.44-3.87S183,33.59,183,35.61v2.47C183,40.09,182,42,178.54,42Zm0-8.11c-1.36,0-1.89.58-1.89,1.69v2.63c0,1.11.53,1.69,1.89,1.69s1.89-.58,1.89-1.69V35.53C180.43,34.42,179.9,33.84,178.54,33.84Zm11.64.16a19.4,19.4,0,0,0-2.7,1.43v6.31h-2.56v-9.8h2.16l.17,1.09a11.54,11.54,0,0,1,2.68-1.29Zm10.22,4.48c0,2.18-1,3.47-3.37,3.47a14.83,14.83,0,0,1-2.73-.29v4l-2.55.38V31.94h2l.25.83a5.55,5.55,0,0,1,3.23-1c2.05,0,3.14,1.17,3.14,3.4Zm-6.1,1.11a12,12,0,0,0,2.27.26c.92,0,1.28-.42,1.28-1.31V35.08c0-.8-.32-1.24-1.26-1.24a3.73,3.73,0,0,0-2.29.88Z"/></svg>