<svg id="LOGOS" xmlns="http://www.w3.org/2000/svg" viewBox="0 0 414 117"><defs><style>.cls-1,.cls-2{fill:#02a8ef;}.cls-1{fill-rule:evenodd;}.cls-3{fill:#fff;}</style></defs><polygon class="cls-1" points="41.7 31.27 64.39 44.38 64.39 92.72 41.7 79.61 41.7 31.27"/><path class="cls-2" d="M75.62,36.92,51,22.72v9.86l16.77,9.68v29.6l7.89,4.53c4.89,2.82,8.88,1.13,8.88-3.75V50.92C84.5,46,80.51,39.74,75.62,36.92Z"/><path class="cls-3" d="M140.11,79V62h-15V79h-7.62V38.68h7.62V55.26h15V38.68h7.62V79Z"/><path class="cls-3" d="M153.79,49.75c0-7.38,4.3-11.67,14.34-11.67a45.49,45.49,0,0,1,11,1.33L178.23,46a59.91,59.91,0,0,0-9.86-1c-5.26,0-7,1.82-7,6.11V66.57c0,4.3,1.7,6.11,7,6.11a58.84,58.84,0,0,0,9.86-1l.85,6.6a45.49,45.49,0,0,1-11,1.33c-10,0-14.34-4.3-14.34-11.68Z"/><path class="cls-3" d="M184.38,38.68h15.73c9.32,0,12.77,3.81,12.77,10.89v5.51c0,7-3.75,10.83-13.13,10.83H192V79h-7.63Zm15.31,6.72H192V59.19h7.68c4.3,0,5.57-1.57,5.57-4.9V50.18C205.26,46.85,203.87,45.4,199.69,45.4Z"/><path class="cls-3" d="M230.12,38.68h15.73c9.32,0,12.77,3.81,12.77,10.89v5.51c0,7-3.75,10.83-13.13,10.83h-7.75V79h-7.62Zm15.31,6.72h-7.69V59.19h7.69c4.29,0,5.56-1.57,5.56-4.9V50.18C251,46.85,249.6,45.4,245.43,45.4Z"/><path class="cls-3" d="M284.57,79h-6.05L278,77a16.18,16.18,0,0,1-8.78,2.6c-5.38,0-7.68-3.69-7.68-8.77,0-6,2.6-8.29,8.59-8.29h7.08V59.43c0-3.26-.91-4.41-5.63-4.41a41.45,41.45,0,0,0-8.16.9l-.91-5.62a38.26,38.26,0,0,1,10.1-1.39c9.26,0,12,3.26,12,10.64Zm-7.38-11.13h-5.45c-2.42,0-3.08.67-3.08,2.91,0,2,.66,3,3,3a11.69,11.69,0,0,0,5.57-1.51Z"/><path class="cls-3" d="M289,68.27v-8c0-7.93,3.45-11.31,12.7-11.31a25.57,25.57,0,0,1,7.2,1.08L308,56a26.94,26.94,0,0,0-6.11-.78c-4.23,0-5.5,1.27-5.5,4.9v8.17c0,3.63,1.27,4.9,5.5,4.9a25.06,25.06,0,0,0,6.11-.79l.91,6a24.12,24.12,0,0,1-7.2,1.09C292.44,79.58,289,76.19,289,68.27Z"/><path class="cls-3" d="M313.28,79V37.47l7.38-1V79Zm25-29.46-8.65,14.58,9,14.88h-8.11l-8.89-14.88,8.41-14.58Z"/><path class="cls-3" d="M353.63,73.53a30.88,30.88,0,0,0,9-1.39l1.14,5.56A31.61,31.61,0,0,1,353,79.58c-9.25,0-12.46-4.3-12.46-11.37V60.4c0-6.23,2.78-11.49,12.22-11.49s11.56,5.5,11.56,11.85v6.29h-16.4v1.52C347.88,72.14,349.15,73.53,353.63,73.53Zm-5.75-12.4h9.38V59.67c0-2.78-.85-4.71-4.48-4.71s-4.9,1.93-4.9,4.71Z"/><path class="cls-3" d="M384.14,55.68a57.14,57.14,0,0,0-7.8,4.3V79H369V49.51h6.24l.48,3.27a32.66,32.66,0,0,1,7.74-3.87Z"/></svg>