<svg id="LOGOS" xmlns="http://www.w3.org/2000/svg" viewBox="0 0 555 132"><defs><style>.cls-1{fill:#fff;}.cls-2{fill:#00ca8e;}</style></defs><path class="cls-1" d="M307.44,87.56v-14h17.24V69.17H307.44V56.24H326V51.81H302.48V92h23.59V87.56Z"/><path class="cls-1" d="M348.41,62.07c-3.49,0-8.6,1.57-11.84,3.13l-.15.07-.49-2.61H332L332,92h4.85l0-22.28.07,0c3.12-1.61,7.68-3,9.95-3,2,0,3,.91,3,2.86l0,22.44h4.85l0-22.51C354.71,64.5,352.66,62.08,348.41,62.07Z"/><path class="cls-1" d="M376,87.83a18.38,18.38,0,0,1-4.64.7c-2.93,0-3.15-1.35-3.15-3.41V66.67h7.95l.41-4h-8.36v-8l-4.85.7v7.29h-5.22v4h5.22V86c0,4.7,2.09,6.61,7.22,6.61a18.18,18.18,0,0,0,6-1Z"/><path class="cls-1" d="M401.81,79.17V73.11c0-7.43-3.59-11-11-11-7.61,0-11.47,3.67-11.47,10.92v8.86c0,7.32,3.68,10.73,11.59,10.73a32.47,32.47,0,0,0,10.3-1.65l-.63-3.83a37.45,37.45,0,0,1-9.25,1.36c-6.09,0-7.16-2.15-7.16-6.67V79.17Zm-17.59-6.55c0-4.53,2-6.55,6.62-6.55s6.31,1.9,6.31,6.55v2.55H384.22Z"/><path class="cls-1" d="M419.79,62.12a37.62,37.62,0,0,0-8,4.65l-.18.15-.31-4.25h-4.19V92H412V71.65l.05,0a65.81,65.81,0,0,1,8.37-5.07Z"/><path class="cls-1" d="M437.78,62.07a15.71,15.71,0,0,0-9.69,3.25l-.16.13-.44-2.78h-4.08v42l4.85-.69V91.65l.15,0a46.91,46.91,0,0,0,8.4.9c6.37,0,9.47-3.11,9.47-9.52V71C446.28,65,443.5,62.07,437.78,62.07Zm3.65,21c0,3.7-1.47,5.28-4.92,5.28a47.39,47.39,0,0,1-8.15-.91l-.1,0V69.9l0,0a13.73,13.73,0,0,1,8.46-3.55c2.8,0,4.67.79,4.67,4.68Z"/><path class="cls-1" d="M464.86,62.12a37.62,37.62,0,0,0-8,4.65l-.18.15-.31-4.25h-4.19V92h4.85V71.65l.05,0a65.81,65.81,0,0,1,8.37-5.07Z"/><path class="cls-1" d="M468.48,50.6v7.09h4.85V50.6Zm0,12.07V92h4.85V62.67Z"/><path class="cls-1" d="M497.13,78.31c-1.24-1.28-3.67-2.07-7.7-3.08-5-1.21-5.13-1.81-5.13-5.22,0-2.82.77-3.82,5.09-3.82a48.45,48.45,0,0,1,8.09.82l.34-3.94a33,33,0,0,0-8.24-1c-7.34,0-10.07,2.12-10.07,7.82,0,6.08.68,7.56,7.91,9.35,5.88,1.43,6.29,1.77,6.29,5.09,0,3.15-.77,4.13-5.59,4.13a33.55,33.55,0,0,1-8.33-1.18l-.63,3.77a30.34,30.34,0,0,0,9.27,1.53c8.51,0,10.06-2.84,10.06-8.43C498.49,81.08,498.3,79.5,497.13,78.31Z"/><path class="cls-1" d="M525,79.17V73.11c0-7.43-3.59-11-11-11-7.6,0-11.46,3.67-11.46,10.92v8.86c0,7.32,3.68,10.73,11.59,10.73a32.36,32.36,0,0,0,10.29-1.65l-.62-3.83a37.45,37.45,0,0,1-9.25,1.36c-6.09,0-7.16-2.15-7.16-6.67V79.17ZM507.4,72.62c0-4.53,2-6.55,6.61-6.55s6.32,1.9,6.32,6.55v2.55H507.4Z"/><path class="cls-1" d="M125,61.42V92h-7.44V51.68h10.16L143,82.29V51.68h7.44V92H140.28Z"/><path class="cls-1" d="M168.58,92.58c-10.1,0-12.82-5.57-12.82-11.62V73.52c0-6,2.72-11.61,12.82-11.61s12.83,5.56,12.83,11.61V81C181.41,87,178.69,92.58,168.58,92.58Zm0-24.38c-3.93,0-5.44,1.75-5.44,5.08V81.2c0,3.33,1.51,5.09,5.44,5.09S174,84.53,174,81.2V73.28C174,70,172.52,68.2,168.58,68.2Z"/><path class="cls-1" d="M203.85,92V71.4c0-1.57-.67-2.36-2.36-2.36s-5,1.09-7.68,2.48V92h-7.38V62.51h5.62l.73,2.48a29.59,29.59,0,0,1,11.8-3.08c2.84,0,4.59,1.15,5.56,3.14A29,29,0,0,1,222,61.91c4.9,0,6.65,3.44,6.65,8.71V92h-7.38V71.4c0-1.57-.66-2.36-2.36-2.36a19.55,19.55,0,0,0-7.68,2.48V92Z"/><path class="cls-1" d="M256.54,92h-6.05l-.55-2a16.15,16.15,0,0,1-8.77,2.6c-5.38,0-7.68-3.69-7.68-8.77,0-6,2.6-8.29,8.59-8.29h7.08V72.43c0-3.26-.91-4.41-5.63-4.41a41.55,41.55,0,0,0-8.17.9l-.9-5.62a38.26,38.26,0,0,1,10.1-1.39c9.25,0,12,3.26,12,10.64Zm-7.38-11.13h-5.45c-2.42,0-3.08.67-3.08,2.91,0,2,.66,3,3,3a11.69,11.69,0,0,0,5.57-1.51Z"/><path class="cls-1" d="M261.07,72.31c0-6.53,2.9-10.4,9.74-10.4a41.09,41.09,0,0,1,7.87.84V50.47l7.38-1V92h-5.87l-.73-2.48a15.46,15.46,0,0,1-9.31,3.09c-5.93,0-9.08-3.51-9.08-10.23ZM278.68,69a33.06,33.06,0,0,0-6.54-.78c-2.66,0-3.69,1.27-3.69,3.93V82.54c0,2.42.91,3.75,3.63,3.75a10.43,10.43,0,0,0,6.6-2.67Z"/><path class="cls-2" d="M61.14,38.19,32,55V88.63l29.12,16.81L90.26,88.63V55Zm13,37-7.76,4.48L57,74.54V85.26l-8.81,5.59V68.45l7-4.28,9.7,5.11V58.34l9.25-5.56Z"/><path class="cls-1" d="M125.42,41.81V36.15h-5.17v5.66h-2.64V28.22h2.64v5.7h5.17v-5.7h2.65V41.81Zm12.33,0h-2.1l-.19-.67a5.69,5.69,0,0,1-3,.87c-1.86,0-2.66-1.23-2.66-2.92,0-2,.9-2.76,3-2.76h2.45v-1c0-1.09-.31-1.47-1.95-1.47a14.94,14.94,0,0,0-2.83.3l-.31-1.87a13.9,13.9,0,0,1,3.5-.46c3.2,0,4.15,1.08,4.15,3.54Zm-2.56-3.7H133.3c-.83,0-1.06.22-1.06,1s.23,1,1,1a4,4,0,0,0,1.93-.51ZM143.1,42a12.59,12.59,0,0,1-3.52-.56l.36-1.88a11.5,11.5,0,0,0,3,.43c1.13,0,1.3-.24,1.3-1s-.13-.9-1.78-1.29c-2.5-.58-2.79-1.18-2.79-3.08s.9-2.83,3.81-2.83a14,14,0,0,1,3.06.34l-.25,2a18.71,18.71,0,0,0-2.81-.28c-1.11,0-1.3.24-1.3.84,0,.79.07.85,1.45,1.19,2.85.73,3.12,1.09,3.12,3.1S146.18,42,143.1,42Zm11.71-.2V35c0-.53-.23-.79-.82-.79a7.12,7.12,0,0,0-2.66.83v6.8h-2.56V28l2.56.38v4.34a9.34,9.34,0,0,1,3.73-.94c1.7,0,2.31,1.14,2.31,2.89v7.11Zm4.7-11.19v-2.4h2.56v2.4Zm0,11.19V32h2.56v9.8Zm4.6-9.72c0-2.46,1.49-3.88,5-3.88a16.47,16.47,0,0,1,3.79.44l-.29,2.19a21.49,21.49,0,0,0-3.42-.34c-1.82,0-2.41.6-2.41,2v5.15c0,1.43.59,2,2.41,2a21.57,21.57,0,0,0,3.42-.35l.29,2.2a16.47,16.47,0,0,1-3.79.44c-3.48,0-5-1.43-5-3.88ZM178.52,42c-3.5,0-4.44-1.85-4.44-3.86V35.67c0-2,.94-3.86,4.44-3.86S183,33.66,183,35.67v2.48C183,40.16,182,42,178.52,42Zm0-8.11c-1.36,0-1.89.58-1.89,1.69v2.64c0,1.1.53,1.69,1.89,1.69s1.89-.59,1.89-1.69V35.59C180.41,34.48,179.88,33.9,178.52,33.9Zm11.64.16a20.53,20.53,0,0,0-2.7,1.43v6.32H184.9V32h2.16l.17,1.08a11.54,11.54,0,0,1,2.68-1.28Zm10.22,4.49c0,2.17-1,3.46-3.37,3.46a14.85,14.85,0,0,1-2.73-.28v4l-2.55.38V32h2l.25.82a5.54,5.54,0,0,1,3.23-1c2,0,3.14,1.16,3.14,3.4Zm-6.1,1.11a12,12,0,0,0,2.27.26c.92,0,1.28-.43,1.28-1.31V35.15c0-.81-.32-1.25-1.26-1.25a3.68,3.68,0,0,0-2.29.89Z"/></svg>